M48
; DRILL file {KiCad 8.0.7} date 2025-01-20T16:32:31-0600
; FORMAT={-:-/ absolute / metric / decimal}
; #@! TF.CreationDate,2025-01-20T16:32:31-06:00
; #@! TF.GenerationSoftware,Kicad,Pcbnew,8.0.7
; #@! TF.FileFunction,NonPlated,1,2,NPTH
FMAT,2
METRIC
; #@! TA.AperFunction,NonPlated,NPTH,ComponentDrill
T1C1.702
; #@! TA.AperFunction,NonPlated,NPTH,ComponentDrill
T2C3.000
; #@! TA.AperFunction,NonPlated,NPTH,ComponentDrill
T3C3.200
; #@! TA.AperFunction,NonPlated,NPTH,ComponentDrill
T4C3.988
%
G90
G05
T1
X9.207Y-21.431
X9.207Y-40.481
X9.207Y-59.531
X9.207Y-78.581
X9.207Y-97.631
X19.367Y-21.431
X19.367Y-40.481
X19.367Y-59.531
X19.367Y-78.581
X19.367Y-97.631
X28.258Y-21.431
X28.258Y-40.481
X28.258Y-59.531
X28.258Y-78.581
X28.258Y-97.631
X38.417Y-21.431
X38.417Y-40.481
X38.417Y-59.531
X38.417Y-78.581
X38.417Y-97.631
X47.307Y-16.669
X47.307Y-35.719
X47.307Y-54.769
X47.307Y-73.819
X47.307Y-92.869
X57.467Y-16.669
X57.467Y-35.719
X57.467Y-54.769
X57.467Y-73.819
X57.467Y-92.869
X66.358Y-14.287
X66.358Y-33.337
X66.358Y-52.387
X66.358Y-71.438
X66.358Y-90.487
X76.517Y-14.287
X76.517Y-33.337
X76.517Y-52.387
X76.517Y-71.438
X76.517Y-90.487
X85.407Y-16.669
X85.407Y-35.719
X85.407Y-54.769
X85.407Y-73.819
X90.984Y-96.844
X95.567Y-16.669
X95.567Y-35.719
X95.567Y-54.769
X95.567Y-73.819
X100.797Y-99.474
X104.457Y-21.431
X104.457Y-40.481
X104.457Y-59.531
X104.457Y-78.581
X114.617Y-21.431
X114.617Y-40.481
X114.617Y-59.531
X114.617Y-78.581
X120.647Y-110.479
X123.507Y-28.575
X125.727Y-101.681
X128.588Y-47.307
X128.588Y-57.467
X131.363Y-91.919
X133.667Y-28.575
X136.443Y-83.121
X137.145Y-120.004
X142.225Y-111.206
X147.861Y-101.444
X152.941Y-92.646
T2
X11.747Y-16.351
X11.747Y-26.511
X11.747Y-35.401
X11.747Y-45.561
X11.747Y-54.451
X11.747Y-64.611
X11.747Y-73.501
X11.747Y-83.661
X11.747Y-92.551
X11.747Y-102.711
X18.098Y-18.891
X18.098Y-23.971
X18.098Y-37.941
X18.098Y-43.021
X18.098Y-56.991
X18.098Y-62.071
X18.098Y-76.041
X18.098Y-81.121
X18.098Y-95.091
X18.098Y-100.171
X30.797Y-16.351
X30.797Y-26.511
X30.797Y-35.401
X30.797Y-45.561
X30.797Y-54.451
X30.797Y-64.611
X30.797Y-73.501
X30.797Y-83.661
X30.797Y-92.551
X30.797Y-102.711
X37.148Y-18.891
X37.148Y-23.971
X37.148Y-37.941
X37.148Y-43.021
X37.148Y-56.991
X37.148Y-62.071
X37.148Y-76.041
X37.148Y-81.121
X37.148Y-95.091
X37.148Y-100.171
X49.847Y-11.589
X49.847Y-21.749
X49.847Y-30.639
X49.847Y-40.799
X49.847Y-49.689
X49.847Y-59.849
X49.847Y-68.739
X49.847Y-78.899
X49.847Y-87.789
X49.847Y-97.949
X56.197Y-14.129
X56.197Y-19.209
X56.197Y-33.179
X56.197Y-38.259
X56.197Y-52.229
X56.197Y-57.309
X56.197Y-71.279
X56.197Y-76.359
X56.197Y-90.329
X56.197Y-95.409
X68.897Y-9.207
X68.897Y-19.367
X68.897Y-28.258
X68.897Y-38.417
X68.897Y-47.307
X68.897Y-57.467
X68.897Y-66.358
X68.897Y-76.517
X68.897Y-85.407
X68.897Y-95.567
X75.248Y-11.747
X75.248Y-16.828
X75.248Y-30.797
X75.248Y-35.877
X75.248Y-49.847
X75.248Y-54.927
X75.248Y-68.897
X75.248Y-73.977
X75.248Y-87.947
X75.248Y-93.027
X87.947Y-11.589
X87.947Y-21.749
X87.947Y-30.639
X87.947Y-40.799
X87.947Y-49.689
X87.947Y-59.849
X87.947Y-68.739
X87.947Y-78.899
X92.122Y-102.409
X94.297Y-14.129
X94.297Y-19.209
X94.297Y-33.179
X94.297Y-38.259
X94.297Y-52.229
X94.297Y-57.309
X94.297Y-71.279
X94.297Y-76.359
X94.752Y-92.595
X98.913Y-101.599
X100.228Y-96.692
X106.997Y-16.351
X106.997Y-26.511
X106.997Y-35.401
X106.997Y-45.561
X106.997Y-54.451
X106.997Y-64.611
X106.997Y-73.501
X106.997Y-83.661
X113.347Y-18.891
X113.347Y-23.971
X113.347Y-37.941
X113.347Y-43.021
X113.347Y-56.991
X113.347Y-62.071
X113.347Y-76.041
X113.347Y-81.121
X117.518Y-105.74
X122.893Y-101.511
X123.507Y-54.927
X126.047Y-23.495
X126.047Y-33.655
X126.047Y-48.578
X126.317Y-110.82
X127.292Y-104.051
X128.234Y-87.18
X131.127Y-48.578
X132.398Y-26.035
X132.398Y-31.115
X133.608Y-82.951
X133.667Y-54.927
X134.016Y-115.265
X137.032Y-92.26
X138.008Y-85.491
X139.391Y-111.036
X142.815Y-120.345
X143.79Y-113.576
X144.731Y-96.705
X150.106Y-92.476
X153.53Y-101.785
X154.506Y-95.016
T3
X4.763Y-11.906
X4.763Y-59.531
X4.763Y-109.537
X40.481Y-9.525
X42.862Y-47.625
X57.15Y-109.537
X100.012Y-47.625
X102.394Y-9.525
X107.156Y-109.537
X121.444Y-69.056
X142.875Y-130.969
X147.843Y-48.151
X155.755Y-48.151
X164.306Y-61.912
X164.306Y-92.869
X176.213Y-19.05
T4
X14.287Y-21.431
X14.287Y-40.481
X14.287Y-59.531
X14.287Y-78.581
X14.287Y-97.631
X33.337Y-21.431
X33.337Y-40.481
X33.337Y-59.531
X33.337Y-78.581
X33.337Y-97.631
X52.387Y-16.669
X52.387Y-35.719
X52.387Y-54.769
X52.387Y-73.819
X52.387Y-92.869
X71.438Y-14.287
X71.438Y-33.337
X71.438Y-52.387
X71.438Y-71.438
X71.438Y-90.487
X90.487Y-16.669
X90.487Y-35.719
X90.487Y-54.769
X90.487Y-73.819
X95.891Y-98.159
X109.537Y-21.431
X109.537Y-40.481
X109.537Y-59.531
X109.537Y-78.581
X123.187Y-106.08
X128.588Y-28.575
X128.588Y-52.387
X133.903Y-87.52
X139.685Y-115.605
X150.401Y-97.045
M30
