<?xml version="1.0" encoding="UTF-8" standalone="no"?>
<!DOCTYPE svg PUBLIC "-//W3C//DTD SVG 1.1//EN" "http://www.w3.org/Graphics/SVG/1.1/DTD/svg11.dtd">
<svg xmlns:svg="http://www.w3.org/2000/svg" xmlns="http://www.w3.org/2000/svg" xmlns:xlink="http://www.w3.org/1999/xlink" version="1.1" width="181.0004mm" height="135.5090mm" viewBox="0.0000 0.0000 181.0004 135.5090">
<title>SVG Image created as picodox-Edge_Cuts.svg date 2025/01/16 17:09:43 </title>
  <desc>Image generated by PCBNEW </desc>




<g style="fill:none;  stroke:#000000; stroke-width:0.0500; stroke-opacity:1;  stroke-linecap:round; stroke-linejoin:round;">
<path d="M169.0938 64.3187 L181.0000 45.2687 "/>
<path d="M54.7937 2.4062 L42.8875 2.4062 "/>
<path d="M107.1812 7.1687 L100.0375 2.4062 "/>
<path d="M181.0001 16.6937 A2.3813 2.3813 0.0 0 0 178.6188 14.3125"/>
<path d="M80.9875 0.0250 L61.9375 0.0250 "/>
<path d="M146.4740 133.7256 L169.0938 95.2750 "/>
<path d="M169.0938 95.2750 L169.0938 64.3187 "/>
<path d="M0.0249 111.9437 A2.3813 2.3813 0.0 0 0 2.4063 114.3250"/>
<path d="M178.6188 14.3125 L135.7562 14.3125 "/>
<path d="M135.7562 14.3125 L119.0875 7.1687 "/>
<path d="M0.0250 9.5500 L0.0250 111.9437 "/>
<path d="M104.8000 114.3250 L92.8937 114.3250 "/>
<path d="M181.0000 45.2687 L181.0000 16.6937 "/>
<path d="M28.6000 7.1687 L2.4062 7.1687 "/>
<path d="M2.4062 114.3250 L90.5125 114.3250 "/>
<path d="M2.4062 7.1687 A2.3813 2.3813 0.0 0 0 0.0250 9.5500"/>
<path d="M140.6507 134.8895 L104.8000 114.3250 "/>
<path d="M88.1312 2.4062 L80.9875 0.0250 "/>
<path d="M61.9375 0.0250 L54.7937 2.4062 "/>
<path d="M92.8937 114.3250 L90.5125 114.3250 "/>
<path d="M100.0375 2.4062 L88.1312 2.4062 "/>
<path d="M42.8875 2.4062 L35.7437 4.7875 "/>
<path d="M119.0875 7.1687 L107.1812 7.1687 "/>
<path d="M35.7437 4.7875 L28.6000 7.1687 "/>
<path d="M140.6507 134.8895 A4.4985 4.4985 0.0 0 0 146.4740 133.7256"/>
</g> 
</svg>