M48
; DRILL file {KiCad 8.0.7} date 2025-01-20T16:32:31-0600
; FORMAT={-:-/ absolute / metric / decimal}
; #@! TF.CreationDate,2025-01-20T16:32:31-06:00
; #@! TF.GenerationSoftware,Kicad,Pcbnew,8.0.7
; #@! TF.FileFunction,Plated,1,2,PTH
FMAT,2
METRIC
; #@! TA.AperFunction,Plated,PTH,ViaDrill
T1C0.300
; #@! TA.AperFunction,Plated,PTH,ComponentDrill
T2C0.700
; #@! TA.AperFunction,Plated,PTH,ComponentDrill
T3C0.800
; #@! TA.AperFunction,Plated,PTH,ComponentDrill
T4C0.900
; #@! TA.AperFunction,Plated,PTH,ComponentDrill
T5C1.000
; #@! TA.AperFunction,Plated,PTH,ComponentDrill
T6C1.100
; #@! TA.AperFunction,Plated,PTH,ComponentDrill
T7C1.500
%
G90
G05
T1
X-7.302Y5.747
X0.064Y1.429
X21.372Y-40.481
X21.372Y-59.531
X21.372Y-78.581
X21.372Y-97.631
X21.431Y-21.431
X40.422Y-40.481
X40.422Y-59.531
X40.422Y-78.581
X40.422Y-97.631
X40.481Y-21.431
X59.472Y-35.719
X59.472Y-54.769
X59.472Y-73.819
X59.472Y-92.869
X59.531Y-16.669
X78.522Y-33.337
X78.522Y-52.387
X78.522Y-71.438
X78.522Y-90.487
X78.581Y-14.287
X97.572Y-35.719
X97.572Y-54.769
X97.572Y-73.819
X97.631Y-16.669
X104.775Y-95.25
X116.681Y-21.431
X116.681Y-40.481
X116.681Y-59.531
X116.681Y-78.581
X121.444Y-97.631
X133.35Y-42.862
X135.731Y-28.575
X136.787Y-41.931
X136.787Y-77.256
X142.875Y-85.725
X144.287Y-83.431
X145.287Y-84.931
X147.637Y-109.537
X147.787Y-85.431
X150.019Y-85.725
X162.787Y-53.431
X165.787Y-53.431
X166.287Y-48.931
X168.834Y-45.478
T2
X10.387Y-30.956
X10.387Y-50.006
X10.387Y-69.056
X10.387Y-88.106
X10.387Y-107.156
X18.188Y-30.956
X18.188Y-50.006
X18.188Y-69.056
X18.188Y-88.106
X18.188Y-107.156
X29.438Y-30.956
X29.438Y-50.006
X29.438Y-69.056
X29.438Y-88.106
X29.438Y-107.156
X37.237Y-30.956
X37.237Y-50.006
X37.237Y-69.056
X37.237Y-88.106
X37.237Y-107.156
X48.487Y-26.194
X48.487Y-45.244
X48.487Y-64.294
X48.487Y-83.344
X48.487Y-102.394
X56.287Y-26.194
X56.287Y-45.244
X56.287Y-64.294
X56.287Y-83.344
X56.287Y-102.394
X67.537Y-23.812
X67.537Y-42.862
X67.537Y-61.912
X67.537Y-80.962
X67.537Y-100.012
X75.337Y-23.812
X75.337Y-42.862
X75.337Y-61.912
X75.337Y-80.962
X75.337Y-100.012
X86.587Y-26.194
X86.587Y-45.244
X86.587Y-64.294
X86.587Y-83.344
X89.703Y-106.333
X94.387Y-26.194
X94.387Y-45.244
X94.387Y-64.294
X94.387Y-83.344
X97.237Y-108.352
X105.637Y-30.956
X105.637Y-50.006
X105.637Y-69.056
X105.637Y-88.106
X113.438Y-30.956
X113.438Y-50.006
X113.438Y-69.056
X113.438Y-88.106
X115.263Y-112.151
X122.018Y-116.051
X124.688Y-38.1
X124.688Y-61.912
X126.004Y-93.923
X131.891Y-121.505
X132.487Y-38.1
X132.487Y-61.912
X132.759Y-97.823
X138.646Y-125.405
X142.267Y-103.309
X149.022Y-107.209
T3
X163.207Y-42.431
X163.287Y-45.931
X173.367Y-42.431
X173.447Y-45.931
T4
X167.06Y-36.425
X168.33Y-38.965
X169.6Y-36.425
X170.87Y-38.965
X172.14Y-36.425
T5
X145.256Y-59.531
X145.256Y-62.031
X145.256Y-64.531
X159.756Y-59.531
X159.756Y-64.531
T6
X144.304Y-21.431
X144.304Y-23.971
X144.304Y-26.511
X144.304Y-29.051
X144.304Y-31.591
X144.304Y-34.131
X144.304Y-36.671
X144.304Y-39.211
X144.304Y-41.751
X144.304Y-44.291
X144.304Y-46.831
X144.304Y-49.371
X150.787Y-74.881
X150.787Y-79.381
X157.287Y-74.881
X157.287Y-79.381
X159.544Y-21.431
X159.544Y-23.971
X159.544Y-26.511
X159.544Y-29.051
X159.544Y-31.591
X159.544Y-34.131
X159.544Y-36.671
X159.544Y-39.211
X159.544Y-41.751
X159.544Y-44.291
X159.544Y-46.831
X159.544Y-49.371
T7
G00X152.106Y-56.431
M15
G01X153.406Y-56.431
M16
G05
G00X152.106Y-67.631
M15
G01X153.406Y-67.631
M16
G05
M30
